<svg xmlns="http://www.w3.org/2000/svg" width="256" height="256" viewBox="0 0 256 256" role="img" aria-label="CarbonAware logo">
  <defs>
    <linearGradient id="ring" x1="0" y1="0" x2="1" y2="1">
      <stop offset="0%" stop-color="#73b72f" />
      <stop offset="100%" stop-color="#2c8f38" />
    </linearGradient>
    <linearGradient id="ocean" x1="0" y1="0" x2="0" y2="1">
      <stop offset="0%" stop-color="#30b8ff" />
      <stop offset="100%" stop-color="#0b64b8" />
    </linearGradient>
    <linearGradient id="leaf" x1="0" y1="0" x2="1" y2="1">
      <stop offset="0%" stop-color="#99da44" />
      <stop offset="100%" stop-color="#2f8b2d" />
    </linearGradient>
  </defs>

  <circle cx="128" cy="134" r="95" fill="url(#ring)" />
  <circle cx="128" cy="128" r="75" fill="url(#ocean)" stroke="#e8fff1" stroke-width="6" />

  <path d="M70 108c18-17 42-26 68-24 13 1 27 4 40 12-7 13-17 24-30 32-20 13-49 17-78 12z" fill="#9ed650" opacity="0.95" />
  <path d="M102 152c12 2 26 1 38-4 21-7 36-21 44-39 11 12 17 28 17 45 0 5-1 10-2 14-24 20-60 26-97 15z" fill="#9ed650" opacity="0.9" />

  <path d="M126 194c43-27 66-51 94-62-16 18-27 42-31 72-31 22-70 24-101 11 5-8 15-15 38-21z" fill="url(#leaf)" />

  <path d="M127 52c7-14 19-24 36-26-4 17-14 30-30 39-2-4-4-8-6-13z" fill="url(#leaf)" />
  <path d="M136 57c14-9 30-11 45-4-10 13-24 20-41 21-2-5-3-11-4-17z" fill="#80c93b" />
</svg>
